<svg xmlns="http://www.w3.org/2000/svg" viewBox="0 0 32 32" width="32" height="32">
  <!-- Hermes Caduceus (Simplified) -->
  <g stroke="#D97757" stroke-width="2" fill="none" stroke-linecap="round" stroke-linejoin="round">
    <!-- Staff -->
    <line x1="16" y1="4" x2="16" y2="28" />
    
    <!-- Wings -->
    <path d="M16 8 C12 6, 6 6, 4 10 C6 11, 10 10, 16 11" />
    <path d="M16 8 C20 6, 26 6, 28 10 C26 11, 22 10, 16 11" />
    
    <!-- Snakes -->
    <path d="M12 12 C16 10, 20 14, 16 16 C12 18, 12 22, 16 24" />
    <path d="M20 12 C16 10, 12 14, 16 16 C20 18, 20 22, 16 24" />
  </g>
</svg>
